<?xml version="1.0" encoding="UTF-8" standalone="no"?>
<!-- Created with Inkscape (http://www.inkscape.org/) -->

<svg
   xmlns:dc="http://purl.org/dc/elements/1.1/"
   xmlns:cc="http://creativecommons.org/ns#"
   xmlns:rdf="http://www.w3.org/1999/02/22-rdf-syntax-ns#"
   xmlns:svg="http://www.w3.org/2000/svg"
   xmlns="http://www.w3.org/2000/svg"
   xmlns:sodipodi="http://sodipodi.sourceforge.net/DTD/sodipodi-0.dtd"
   xmlns:inkscape="http://www.inkscape.org/namespaces/inkscape"
   width="150"
   height="150"
   id="svg2"
   version="1.1"
   inkscape:version="0.48.3.1 r9886"
   sodipodi:docname="music.svg">
  <defs
     id="defs4" />
  <sodipodi:namedview
     id="base"
     pagecolor="#ffffff"
     bordercolor="#666666"
     borderopacity="1.0"
     inkscape:pageopacity="0.0"
     inkscape:pageshadow="2"
     inkscape:zoom="1.54"
     inkscape:cx="66"
     inkscape:cy="66"
     inkscape:document-units="px"
     inkscape:current-layer="layer1"
     showgrid="false"
     inkscape:window-width="1280"
     inkscape:window-height="1004"
     inkscape:window-x="-2"
     inkscape:window-y="-3"
     inkscape:window-maximized="1"
     fit-margin-top="0"
     fit-margin-left="0"
     fit-margin-right="0"
     fit-margin-bottom="0" />
  <metadata
     id="metadata7">
    <rdf:RDF>
      <cc:Work
         rdf:about="">
        <dc:format>image/svg+xml</dc:format>
        <dc:type
           rdf:resource="http://purl.org/dc/dcmitype/StillImage" />
        <dc:title />
      </cc:Work>
    </rdf:RDF>
  </metadata>
  <g
     inkscape:label="Layer 1"
     inkscape:groupmode="layer"
     id="layer1"
     transform="translate(16.28125,-603.5377)">
    <path
       style="fill:none;stroke:#000000;stroke-width:1.20456409;stroke-linecap:butt;stroke-linejoin:miter;stroke-miterlimit:4;stroke-opacity:1;stroke-dasharray:none"
       d="m -17.389099,709.01752 c 0,0 11.3275223,22.80798 43.765426,12.79472 32.437903,-10.01326 27.803916,-34.49012 69.509795,-21.1391 41.705878,13.35101 57.152498,7.78809 73.114008,3.33775"
       id="path3875"
       inkscape:connector-curvature="0" />
    <path
       style="fill:none;stroke:#000000;stroke-width:1.20456409;stroke-linecap:butt;stroke-linejoin:miter;stroke-miterlimit:4;stroke-opacity:1;stroke-dasharray:none"
       d="m -17.389099,688.71285 c 0,0 11.3275233,22.80799 43.765428,12.79472 32.437901,-10.01326 27.803914,-34.49012 69.509793,-21.1391 41.705878,13.35101 57.152498,7.78809 73.114008,3.33775"
       id="path3875-3"
       inkscape:connector-curvature="0" />
    <path
       style="fill:none;stroke:#000000;stroke-width:1.20456409;stroke-linecap:butt;stroke-linejoin:miter;stroke-miterlimit:4;stroke-opacity:1;stroke-dasharray:none"
       d="m -17.389099,668.40819 c 0,0 11.3275233,22.80798 43.765426,12.79472 32.437903,-10.01326 27.803916,-34.49012 69.509795,-21.1391 41.705878,13.35101 57.152498,7.78808 73.114008,3.33775"
       id="path3875-33"
       inkscape:connector-curvature="0" />
    <path
       style="fill:none;stroke:#000000;stroke-width:1.20456409;stroke-linecap:butt;stroke-linejoin:miter;stroke-miterlimit:4;stroke-opacity:1;stroke-dasharray:none"
       d="m -17.389099,648.10352 c 0,0 11.3275233,22.80799 43.765426,12.79472 32.437903,-10.01326 27.803916,-34.49012 69.509795,-21.1391 41.705878,13.35101 57.152498,7.78809 73.114008,3.33775"
       id="path3875-7"
       inkscape:connector-curvature="0" />
    <path
       style="fill:none;stroke:#000000;stroke-width:1.20456409;stroke-linecap:butt;stroke-linejoin:miter;stroke-miterlimit:4;stroke-opacity:1;stroke-dasharray:none"
       d="m -17.389099,729.32218 c 0,0 11.3275223,22.80799 43.765424,12.79472 32.437905,-10.01326 27.803918,-34.49012 69.509797,-21.1391 41.705878,13.35101 57.152498,7.78809 73.113998,3.33775"
       id="path3875-0"
       inkscape:connector-curvature="0" />
    <g
       id="g3877"
       transform="matrix(0.19314491,0,0,0.20867675,-6.0615757,595.82481)"
       style="fill:#ffb11b;fill-opacity:1">
      <path
         d="m 244.13987,605.85541 c 0,28.19737 -31.17067,51.05586 -69.62164,51.05586 -38.45096,0 -69.62163,-22.85849 -69.62163,-51.05586 0,-28.19738 31.17067,-51.05587 69.62163,-51.05587 38.45097,0 69.62164,22.85849 69.62164,51.05587 z"
         sodipodi:ry="51.055866"
         sodipodi:rx="69.621635"
         sodipodi:cy="605.85541"
         sodipodi:cx="174.51823"
         id="path2985"
         style="fill:#ffb11b;fill-opacity:1;fill-rule:nonzero;stroke:none"
         sodipodi:type="arc" />
      <path
         d="m 244.13987,605.85541 c 0,28.19737 -31.17067,51.05586 -69.62164,51.05586 -38.45096,0 -69.62163,-22.85849 -69.62163,-51.05586 0,-28.19738 31.17067,-51.05587 69.62163,-51.05587 38.45097,0 69.62164,22.85849 69.62164,51.05587 z"
         sodipodi:ry="51.055866"
         sodipodi:rx="69.621635"
         sodipodi:cy="605.85541"
         sodipodi:cx="174.51823"
         id="path2985-2"
         style="fill:#ffb11b;fill-opacity:1;fill-rule:nonzero;stroke:none"
         sodipodi:type="arc"
         transform="translate(240.4267,-123.46234)" />
      <rect
         y="218.90257"
         x="228.21553"
         height="391.73773"
         width="14.852619"
         id="rect3797"
         style="fill:#ffb11b;fill-opacity:1;fill-rule:nonzero;stroke:none" />
      <rect
         y="97.153366"
         x="469.85739"
         height="391.73773"
         width="14.852619"
         id="rect3797-7"
         style="fill:#ffb11b;fill-opacity:1;fill-rule:nonzero;stroke:none" />
      <rect
         transform="matrix(0.88394367,-0.4675934,0,1,0,0)"
         y="335.24692"
         x="258.17883"
         height="36.203251"
         width="289.84607"
         id="rect3817"
         style="fill:#ffb11b;fill-opacity:1;fill-rule:nonzero;stroke:none" />
      <rect
         transform="matrix(0.88394367,-0.4675934,0,1,0,0)"
         y="402.21719"
         x="258.34109"
         height="36.203251"
         width="289.84607"
         id="rect3817-2"
         style="fill:#ffb11b;fill-opacity:1;fill-rule:nonzero;stroke:none" />
    </g>
  </g>
</svg>
